<svg width="16" height="16" viewBox="0 0 16 16" fill="none" xmlns="http://www.w3.org/2000/svg">
<path fill-rule="evenodd" clip-rule="evenodd" d="M1 7.99998C1 7.86737 1.05268 7.74019 1.14645 7.64643C1.24021 7.55266 1.36739 7.49998 1.5 7.49998L13.293 7.49998L10.146 4.35398C10.0521 4.26009 9.99937 4.13275 9.99937 3.99998C9.99937 3.8672 10.0521 3.73987 10.146 3.64598C10.2399 3.55209 10.3672 3.49935 10.5 3.49935C10.6328 3.49935 10.7601 3.55209 10.854 3.64598L14.854 7.64598C14.9006 7.69242 14.9375 7.7476 14.9627 7.80835C14.9879 7.86909 15.0009 7.93421 15.0009 7.99998C15.0009 8.06575 14.9879 8.13087 14.9627 8.19161C14.9375 8.25236 14.9006 8.30753 14.854 8.35398L10.854 12.354C10.7601 12.4479 10.6328 12.5006 10.5 12.5006C10.3672 12.5006 10.2399 12.4479 10.146 12.354C10.0521 12.2601 9.99937 12.1328 9.99937 12C9.99937 11.8672 10.0521 11.7399 10.146 11.646L13.293 8.49998H1.5C1.36739 8.49998 1.24021 8.4473 1.14645 8.35353C1.05268 8.25976 1 8.13259 1 7.99998V7.99998Z" fill="white"/>
</svg>
